# xmcd CD database file
#
# Track frame offsets:
#	150
#	14979
#	25511
#	38537
#	51497
#	64297
#	77239
#	94223
#	104794
#	116052
#	128328
#	138603
#
# Disc length: 1997 seconds
#
# Revision: 0
# Processed by: cddbd v1.5.1PL2 Copyright (c) Steve Scherf et al.
# Submitted via: CDex 1.51
#
DISCID=ab07cb0c
DTITLE=Various Artist - Country Snapshot
DYEAR=2003
DGENRE=Country
TTITLE0=Green Green Grass Of Home-Bill Anderson
TTITLE1=Burning Memories-Waylon Jennings
TTITLE2=If I Could See The World-Patsy Cline
TTITLE3=I Took A Memory To Lunch-Bobby Bare
TTITLE4=Crazy Dreams-Conway Twitty
TTITLE5=Dallas-Billie Jo Spears
TTITLE6=Southern Nights(Live)-Glen Campbell
TTITLE7=Alone With You-Faron Young
TTITLE8=On The Lonely Side Of Town-Kitty Wells
TTITLE9=The House Down The Block-Buck Owens
TTITLE10=A-11-Johnny Paycheck
TTITLE11=Oklahoma Hills-Hank Thompson
EXTD=YEAR: 2003
EXTT0=
EXTT1=
EXTT2=
EXTT3=
EXTT4=
EXTT5=
EXTT6=
EXTT7=
EXTT8=
EXTT9=
EXTT10=
EXTT11=
PLAYORDER=
